<svg width="87" height="34" viewBox="0 0 87 34" fill="none" xmlns="http://www.w3.org/2000/svg">
<path d="M27.3335 17.729C27.3335 20.8784 26.7769 23.6396 25.6636 26.0127C24.5503 28.3857 22.9536 30.2168 20.8735 31.5059C18.8081 32.7949 16.4351 33.4395 13.7544 33.4395C11.103 33.4395 8.7373 32.8022 6.65723 31.5278C4.57715 30.2534 2.96582 28.437 1.82324 26.0786C0.680664 23.7056 0.102051 20.981 0.0874023 17.9048V16.3228C0.0874023 13.1733 0.651367 10.4048 1.7793 8.01709C2.92188 5.61475 4.52588 3.77637 6.59131 2.50195C8.67139 1.21289 11.0444 0.568359 13.7104 0.568359C16.3765 0.568359 18.7422 1.21289 20.8076 2.50195C22.8877 3.77637 24.4917 5.61475 25.6196 8.01709C26.7622 10.4048 27.3335 13.166 27.3335 16.3008V17.729ZM20.6538 16.2788C20.6538 12.9243 20.0532 10.3755 18.8521 8.63232C17.6509 6.88916 15.937 6.01758 13.7104 6.01758C11.4985 6.01758 9.79199 6.88184 8.59082 8.61035C7.38965 10.3242 6.78174 12.8438 6.76709 16.1689V17.729C6.76709 20.9956 7.36768 23.5298 8.56885 25.3315C9.77002 27.1333 11.4985 28.0342 13.7544 28.0342C15.9663 28.0342 17.6655 27.1699 18.8521 25.4414C20.0386 23.6982 20.6392 21.1641 20.6538 17.8389V16.2788ZM49.7017 26.4082H38.144L35.9468 33H28.9375L40.8467 1.00781H46.9551L58.9302 33H51.9209L49.7017 26.4082ZM39.9238 21.0688H47.9219L43.9009 9.09375L39.9238 21.0688ZM73.7617 21.2886H68.5103V33H61.9185V1.00781H73.8057C77.585 1.00781 80.5 1.8501 82.5508 3.53467C84.6016 5.21924 85.627 7.59961 85.627 10.6758C85.627 12.8584 85.1509 14.6821 84.1987 16.147C83.2612 17.5972 81.833 18.7544 79.9141 19.6187L86.8354 32.6924V33H79.7603L73.7617 21.2886ZM68.5103 15.9492H73.8276C75.4829 15.9492 76.7646 15.5317 77.6729 14.6968C78.5811 13.8472 79.0352 12.6826 79.0352 11.2031C79.0352 9.69434 78.603 8.50781 77.7388 7.64355C76.8892 6.7793 75.5781 6.34717 73.8057 6.34717H68.5103V15.9492Z" fill="#0E87A2"/>
</svg>
